#define xteddy_bw_width 196
#define xteddy_bw_height 253
static unsigned char xteddy_bw_bits[] = {
 0x00,0x00,0x00,0x00,0x00,0x00,0x00,0x00,0x00,0x00,0x00,0x00,0x00,0x00,0x00,
 0x00,0x00,0x00,0x00,0x00,0x00,0x00,0x00,0x00,0x00,0x00,0x00,0x00,0x00,0x00,
 0x00,0x00,0x00,0x00,0x00,0x00,0x00,0x00,0x00,0x00,0x00,0x00,0x00,0x00,0x00,
 0x00,0x00,0x00,0x00,0x00,0x00,0x00,0x00,0x00,0x00,0x00,0x00,0x00,0x00,0x00,
 0x00,0x00,0x00,0x00,0x00,0x00,0x00,0x00,0x00,0x00,0x00,0x00,0x00,0x00,0x00,
 0x00,0x00,0x00,0x00,0x00,0x00,0x00,0x00,0x00,0x00,0x00,0x00,0x00,0x00,0x00,
 0x00,0x00,0x00,0x00,0x00,0x00,0x00,0x00,0x00,0x00,0x00,0x00,0x00,0x00,0x00,
 0x00,0x00,0x00,0x00,0x00,0x00,0x00,0x00,0x00,0x00,0x00,0x00,0x00,0x00,0x00,
 0x00,0x00,0x00,0x00,0x00,0x00,0x00,0x00,0x00,0x00,0x00,0x00,0x00,0x00,0x00,
 0x00,0x00,0x00,0x00,0x00,0x00,0x00,0x00,0x00,0x00,0x00,0x00,0x00,0x00,0x00,
 0x00,0x00,0x00,0x00,0x00,0x00,0x00,0x00,0x00,0x00,0x00,0x00,0x00,0x00,0x00,
 0x00,0x00,0x00,0x00,0x00,0x00,0x00,0x00,0x00,0x00,0x00,0x00,0x00,0x00,0x00,
 0x00,0x00,0x00,0x00,0x00,0x00,0x00,0x00,0x00,0x00,0x00,0x00,0x00,0x00,0x00,
 0x00,0x00,0x00,0x00,0x00,0x00,0x00,0x00,0x00,0x00,0x00,0x00,0x00,0x00,0x00,
 0x00,0x00,0x00,0x00,0x00,0x00,0x00,0x00,0x00,0x00,0x00,0x00,0x00,0x00,0x00,
 0x00,0x00,0x00,0x00,0x00,0x00,0x00,0x00,0x00,0x00,0x00,0x00,0x00,0x00,0x00,
 0x00,0x00,0x00,0x00,0x00,0x00,0x00,0x00,0x00,0x00,0x00,0x00,0x00,0x00,0x00,
 0x00,0x00,0x00,0x00,0x00,0x00,0x00,0x00,0x00,0x00,0x00,0x00,0x00,0x00,0x00,
 0x00,0x00,0x00,0x00,0x00,0x00,0x00,0x00,0x00,0x00,0x00,0x00,0x00,0x00,0x00,
 0x00,0x00,0x00,0x00,0x00,0x00,0x00,0x00,0x00,0x00,0x00,0x00,0x00,0x00,0x00,
 0x00,0x00,0x00,0x00,0x00,0x00,0x00,0x00,0x00,0x00,0x00,0x00,0x00,0x00,0x00,
 0x00,0x00,0x00,0x00,0x00,0x00,0x00,0x00,0x00,0x00,0x00,0x00,0x00,0x00,0x00,
 0x00,0x00,0x00,0x00,0x00,0x00,0x00,0x00,0x00,0x00,0x00,0x00,0x00,0x00,0x00,
 0x00,0x00,0x00,0x00,0x00,0x00,0x00,0x00,0x00,0x00,0x00,0x00,0x00,0x00,0x00,
 0x00,0x00,0x00,0x00,0x00,0x00,0x00,0x00,0x00,0x00,0x00,0x00,0x00,0x00,0x00,
 0x00,0x00,0x00,0x00,0x00,0x00,0x00,0x00,0x00,0x00,0x00,0x00,0x00,0x00,0x00,
 0x00,0x00,0x00,0x00,0x00,0x00,0x00,0x00,0x00,0x00,0x00,0x00,0x00,0x00,0x00,
 0x00,0x04,0x09,0x00,0x00,0x00,0x00,0x00,0x00,0x00,0x00,0x00,0x00,0x00,0x00,
 0x00,0x00,0x00,0x00,0x00,0x00,0x00,0x00,0x00,0x80,0x4a,0x51,0x02,0x00,0x00,
 0x00,0x00,0x00,0x00,0x00,0x00,0x00,0x00,0x00,0x00,0x00,0x00,0x00,0x00,0x00,
 0x00,0x00,0x00,0x00,0x28,0x91,0x8a,0x24,0x00,0x00,0x00,0x00,0x00,0x00,0x00,
 0x00,0x00,0x00,0x00,0x00,0x00,0x00,0x00,0x00,0x00,0x00,0x00,0x00,0x00,0x52,
 0x2a,0x35,0x11,0x00,0x00,0x00,0x00,0x00,0x00,0x00,0x00,0x00,0x00,0x00,0x00,
 0x00,0x00,0x00,0x00,0x00,0x00,0x00,0x00,0x00,0xa9,0xa5,0x4a,0x21,0x00,0x00,
 0x00,0x00,0x00,0x00,0x00,0x00,0x00,0x00,0x00,0x00,0x00,0x00,0x00,0x00,0x00,
 0x00,0x00,0x00,0x00,0x5a,0x55,0xbb,0x0a,0x00,0x00,0x00,0x04,0x00,0x00,0x00,
 0x00,0x00,0x00,0x00,0x00,0x00,0x00,0x00,0x00,0x00,0x00,0x00,0x00,0x80,0x76,
 0xd5,0x56,0x55,0x02,0x00,0x90,0x20,0x12,0x00,0x00,0x00,0x00,0x00,0x00,0x00,
 0x00,0x00,0x00,0x00,0x00,0x00,0x00,0x00,0x40,0xad,0xbb,0x6d,0x25,0x20,0x00,
 0x04,0x8a,0x80,0x04,0x02,0x00,0x50,0x0a,0x01,0x00,0x00,0x00,0x00,0x00,0x00,
 0x00,0x00,0x00,0x80,0xfa,0xd6,0xda,0x8a,0x0a,0x90,0xa0,0x20,0x29,0x90,0x50,
 0x00,0x8a,0x50,0x28,0x00,0x00,0x00,0x00,0x00,0x00,0x00,0x00,0x00,0xa0,0xae,
 0xff,0xb7,0x35,0x00,0x84,0x0a,0x95,0x44,0x01,0x00,0xa5,0x24,0x0b,0x82,0x00,
 0x00,0x00,0x00,0x00,0x00,0x00,0x00,0x00,0x80,0xfd,0xab,0x7e,0x47,0xa5,0x20,
 0x20,0x22,0x09,0x24,0x55,0x00,0x69,0xaa,0x54,0x02,0x00,0x00,0x00,0x00,0x00,
 0x00,0x00,0x00,0x20,0x6b,0xff,0xd5,0x5a,0x02,0x80,0xca,0x14,0x52,0x81,0x20,
 0x55,0xca,0x5a,0x95,0x04,0x00,0x00,0x00,0x00,0x00,0x00,0x00,0x00,0x40,0xed,
 0x6b,0xff,0x97,0x28,0x12,0x94,0xa2,0x08,0x12,0x4a,0x80,0xaa,0x55,0x55,0x15,
 0x00,0x00,0x00,0x00,0x00,0x00,0x00,0x00,0x40,0xbb,0xfe,0xab,0x3a,0x45,0xa0,
 0xa2,0x94,0xa2,0xa4,0x90,0x2a,0xaa,0x6e,0x55,0x05,0x00,0x00,0x00,0x00,0x00,
 0x00,0x00,0x00,0xc0,0xee,0x6d,0xff,0x57,0x10,0x09,0x54,0x25,0x09,0x49,0x25,
 0x81,0xda,0xaa,0xbb,0x5b,0x00,0x00,0x00,0x00,0x00,0x00,0x00,0x00,0xa0,0xfb,
 0xff,0x5b,0xad,0x02,0xa0,0xa2,0xaa,0x52,0x92,0x52,0x2a,0xb4,0xed,0xee,0x56,
 0x01,0x00,0x00,0x00,0x00,0x00,0x00,0x00,0x40,0x6f,0xfb,0xee,0x6b,0xa9,0x0a,
 0x95,0x54,0x8a,0x54,0x94,0x00,0xad,0xba,0xfb,0xad,0x00,0x00,0x00,0x00,0x00,
 0x00,0x00,0x00,0x40,0xfd,0xdf,0x7b,0x55,0x42,0x50,0x55,0xa5,0x52,0xa5,0xa5,
 0x2a,0x52,0xf7,0xbf,0xb7,0x00,0x00,0x00,0x00,0x00,0x00,0x00,0x00,0xa0,0xef,
 0xff,0xfe,0xd6,0x14,0xa5,0xaa,0xaa,0x2a,0x49,0xaa,0x82,0x8a,0xac,0xee,0xbf,
 0x00,0x00,0x00,0x00,0x00,0x00,0x00,0x00,0x40,0x7b,0xff,0xdf,0xaa,0x52,0x2a,
 0x55,0xb5,0x4a,0xaa,0xaa,0x2a,0x12,0xfb,0xfb,0xed,0x01,0x00,0x00,0x00,0x00,
 0x00,0x00,0x00,0xa0,0xfd,0xff,0xff,0xd6,0xaa,0xa8,0xaa,0x56,0x95,0xaa,0xaa,
 0x4a,0x85,0xd4,0xfe,0x5f,0x02,0x00,0x00,0x00,0x00,0x00,0x00,0x00,0x40,0xff,
 0xff,0x7f,0xad,0x12,0x55,0x55,0xad,0xab,0xaa,0xaa,0x94,0x12,0xea,0xff,0xfb,
 0x00,0x00,0x00,0x00,0x00,0x00,0x00,0x00,0xa0,0xda,0xff,0xff,0x5b,0x55,0x55,
 0x95,0x6a,0x55,0xa9,0xaa,0x52,0x84,0xe8,0xff,0xaf,0x01,0x00,0x00,0x00,0x00,
 0x00,0x00,0x00,0x80,0xfe,0xfe,0x5f,0xf5,0x2a,0xa9,0xaa,0x9a,0x56,0x55,0x55,
 0xad,0x12,0x6a,0xff,0x7e,0x03,0x00,0x00,0x00,0x00,0x00,0x00,0x00,0x40,0xb5,
 0xff,0xbf,0xaf,0x55,0xaa,0x52,0xd5,0xaa,0xaa,0xaa,0x52,0x04,0xe8,0xff,0xdf,
 0x04,0x00,0x00,0x00,0x00,0x00,0x00,0x00,0x80,0xee,0xff,0xd7,0x7a,0xab,0x54,
 0x55,0xab,0x55,0x55,0xb5,0xad,0x89,0xaa,0xff,0xf7,0x01,0x00,0x00,0x00,0x00,
 0x00,0x00,0x00,0x40,0xf5,0xff,0xff,0xd7,0x96,0xaa,0xaa,0xaa,0xaa,0xaa,0x56,
 0xbb,0x12,0xd4,0xff,0xbf,0x02,0x00,0x00,0x00,0x00,0x00,0x00,0x00,0x80,0xfa,
 0xfd,0x5b,0xfd,0x5b,0x55,0x55,0x5b,0x6d,0x55,0xed,0x6a,0x45,0xd1,0xff,0xef,
 0x07,0x00,0x00,0x00,0x00,0x00,0x00,0x00,0x40,0xd6,0xff,0xef,0xaf,0x2e,0xb5,
 0xaa,0xaa,0x5a,0xdb,0x5b,0xdf,0x2a,0x64,0xff,0x7d,0x09,0x00,0x00,0x00,0x00,
 0x00,0x00,0x00,0x80,0xba,0xee,0x7b,0xfb,0x5b,0x55,0xd5,0xd6,0xd6,0x56,0xb6,
 0xb5,0x0a,0xc8,0xff,0xff,0x07,0x00,0x00,0x00,0x00,0x00,0x00,0x00,0x80,0xea,
 0xff,0xde,0xff,0xfe,0x6a,0xab,0xaa,0x55,0xd5,0xed,0xae,0x02,0x51,0xff,0x5f,
 0x05,0x00,0x00,0x00,0x00,0x00,0x00,0x00,0x00,0xfd,0xfb,0xef,0xda,0x57,0x5d,
 0xdd,0x56,0xdb,0xb6,0xb6,0x5b,0x29,0xa4,0xff,0xfe,0x0b,0x00,0x00,0x00,0x00,
 0x00,0x00,0x00,0x40,0x56,0xff,0xbb,0x7f,0x7f,0xd3,0xb6,0x6d,0xb5,0xed,0x7d,
 0x57,0x02,0xd2,0xff,0x77,0x0b,0x00,0x00,0x00,0x00,0x00,0x00,0x00,0x00,0xfd,
 0xfd,0xff,0xed,0xdb,0xb6,0x55,0xab,0x6b,0x5b,0xd7,0xdd,0xa4,0x08,0xdf,0xdf,
 0x15,0x00,0x00,0x00,0x00,0x00,0x00,0x00,0x00,0x69,0xff,0xb6,0xbf,0xff,0x6d,
 0xef,0x5a,0xad,0xb6,0x7e,0xab,0x02,0x64,0x75,0xfb,0x07,0x00,0x00,0x00,0x00,
 0x00,0x00,0x00,0x00,0xfa,0xff,0xdf,0xfd,0x6e,0xb5,0xb5,0xad,0xda,0xed,0xd5,
 0xb7,0x08,0x92,0xde,0xdf,0x0a,0x00,0x00,0x00,0x00,0x00,0x00,0x00,0x00,0xd5,
 0x6e,0x75,0xef,0xdf,0xdb,0x6e,0xdb,0xb7,0xaa,0x7f,0x2d,0x81,0x20,0xbb,0xf6,
 0x05,0x00,0x00,0x00,0x00,0x00,0x00,0x00,0x00,0xe8,0xfb,0xdf,0x7d,0xfb,0xb6,
 0xdd,0x36,0x55,0x5b,0xd5,0xaa,0x12,0x94,0xee,0x5d,0x0b,0x00,0x00,0x00,0x00,
 0x00,0x00,0x00,0x00,0x5a,0xff,0x75,0xff,0xdf,0xad,0xb6,0x6d,0xdd,0xb6,0xbf,
 0x55,0x00,0xa1,0x5a,0xf7,0x05,0x00,0x00,0x00,0x00,0x00,0x00,0x00,0x00,0xf0,
 0xff,0xde,0xff,0x7f,0x77,0xdb,0xd6,0x6b,0xed,0x7a,0x95,0x12,0x8a,0xf6,0xae,
 0x02,0x00,0x00,0x00,0x00,0x00,0x00,0x00,0x00,0x44,0xbf,0x77,0xdb,0xee,0xaf,
 0x77,0x7b,0xb5,0x5b,0xaf,0x2a,0x40,0x50,0xad,0xb5,0x01,0x00,0x00,0x00,0x00,
 0x00,0x00,0x00,0x00,0xd0,0xed,0xdf,0xff,0xff,0xdd,0xda,0xad,0x6e,0xd5,0xbd,
 0xa6,0x04,0x25,0x75,0x5b,0x05,0x00,0x00,0x00,0x00,0x00,0x00,0x00,0x00,0xa0,
 0xff,0x6a,0xb7,0xb7,0xbf,0x6d,0x6b,0xdb,0xae,0x57,0x09,0x41,0x48,0x6f,0x57,
 0x00,0x00,0x00,0x00,0x00,0x00,0x00,0x00,0x00,0x90,0x76,0xdf,0xee,0xff,0x6f,
 0xb7,0xd6,0xb6,0x75,0xad,0x2a,0x10,0xa2,0xb4,0xaa,0x02,0x00,0x00,0x00,0x00,
 0x00,0x00,0x00,0x00,0xa0,0xfe,0xb5,0xfb,0xff,0xbd,0xdd,0xad,0xad,0xaa,0xdf,
 0x52,0x00,0x49,0x6d,0x55,0x00,0x00,0x00,0x00,0x00,0x00,0x00,0x00,0x00,0x80,
 0xba,0x7b,0x7f,0x6d,0xef,0xbb,0xda,0xb6,0xfd,0x2a,0x89,0x42,0x10,0xd5,0x55,
 0x00,0x00,0x00,0x00,0x00,0x00,0x00,0x00,0x00,0x00,0x6d,0xad,0xed,0xff,0xbf,
 0xf6,0xb5,0x6d,0xab,0x57,0x55,0x10,0xa5,0xba,0x2a,0x00,0x00,0x00,0x00,0x00,
 0x00,0x00,0x00,0x00,0x40,0xda,0x77,0xbb,0xdb,0x76,0xad,0x6e,0xf7,0x76,0x6d,
 0x95,0x40,0x54,0xd5,0x05,0x00,0x00,0x00,0x00,0x00,0x00,0x00,0x00,0x00,0x00,
 0xb5,0xda,0xee,0xfe,0xff,0x7b,0x2b,0xdd,0xed,0xab,0x2a,0x05,0x81,0xba,0x2a,
 0x00,0x00,0x00,0x00,0x00,0x00,0x00,0x00,0x00,0x00,0xc8,0xb7,0xbd,0xff,0x7f,
 0xad,0x00,0xa0,0x5a,0x55,0x55,0x50,0x54,0xd6,0x02,0x00,0x00,0x00,0x00,0x00,
 0x00,0x00,0x00,0x00,0x00,0x52,0x6d,0xeb,0xf7,0xff,0x1b,0x00,0x00,0xf7,0xea,
 0x56,0x01,0x91,0x6c,0x05,0x00,0x00,0x00,0x00,0x00,0x00,0x00,0x00,0x00,0x00,
 0xe0,0xb6,0xbf,0xfe,0xe7,0x06,0x00,0x00,0xac,0xde,0xaf,0x24,0x22,0xdb,0x02,
 0x00,0x00,0x00,0x00,0x00,0x00,0x00,0x00,0x00,0x00,0xa0,0x7d,0xf5,0xff,0xf7,
 0x0b,0x00,0x00,0x68,0xf5,0x5d,0x40,0x54,0x6d,0x00,0x00,0x00,0x00,0x00,0x00,
 0x00,0x00,0x00,0x00,0x00,0x50,0xd7,0x5f,0xff,0xff,0x01,0x00,0x00,0xd0,0xfb,
 0x57,0x09,0x81,0x9a,0x00,0x00,0x00,0x00,0x00,0x00,0x00,0x00,0x00,0x00,0x00,
 0xa0,0x7d,0xed,0xfd,0xff,0x00,0x00,0x00,0x40,0xf6,0x5f,0x24,0x2a,0x15,0x00,
 0x00,0x00,0x00,0x00,0x00,0x00,0x00,0x00,0x00,0x00,0x60,0xd7,0xbf,0xff,0xff,
 0x00,0x00,0x00,0x80,0xf7,0x57,0x81,0x90,0x0a,0x00,0x00,0x00,0x00,0x00,0x00,
 0x00,0x00,0x00,0x00,0x00,0xd0,0x7d,0x6b,0xfd,0x7f,0x00,0x00,0x00,0x80,0xeb,
 0x5f,0x10,0x4a,0x02,0x00,0x00,0x00,0x00,0x00,0x00,0x00,0x00,0x00,0x00,0x00,
 0xa0,0xf7,0xbf,0xef,0x1f,0x00,0x00,0x00,0x00,0xff,0x17,0xa1,0x10,0x00,0x00,
 0x00,0x00,0x00,0x00,0x00,0x00,0x00,0x00,0x00,0x00,0x70,0xdd,0xea,0xfe,0x0f,
 0x00,0x00,0x00,0x00,0xff,0xaf,0x04,0x4a,0x01,0x00,0x00,0x00,0x00,0x00,0x00,
 0x00,0x00,0x00,0x00,0x00,0xd0,0x77,0xff,0xbb,0x03,0x00,0x00,0x00,0x00,0xfe,
 0x2b,0x90,0x10,0x00,0x00,0x00,0x00,0x00,0x00,0x00,0x00,0x00,0x00,0x00,0x00,
 0x50,0xdf,0x5f,0xef,0x03,0x00,0x00,0x00,0x00,0xfe,0x17,0x04,0x0a,0x00,0x00,
 0x00,0x00,0x00,0x00,0x00,0x00,0x00,0x00,0x00,0x00,0xf0,0xba,0xf5,0xfd,0x02,
 0x00,0x00,0x00,0x00,0xfc,0xa5,0x20,0xa1,0x00,0x00,0x00,0x00,0x00,0x00,0x00,
 0x00,0x00,0x00,0x00,0x00,0xa0,0xef,0xff,0xf7,0x01,0x00,0x00,0x00,0x00,0xf8,
 0x14,0x89,0x14,0x00,0x00,0x00,0x00,0x00,0x00,0x00,0x00,0x00,0x00,0x00,0x00,
 0xd0,0x7e,0xbd,0x5e,0x00,0x00,0xaa,0x00,0x00,0xa8,0x52,0x10,0x09,0x00,0x00,
 0x00,0x00,0x00,0x00,0x00,0x00,0x00,0x00,0x00,0x00,0xb0,0xdb,0xf7,0xfb,0x00,
 0x00,0xa4,0x02,0x00,0x50,0x85,0x42,0x24,0x00,0x00,0x00,0x00,0x00,0x00,0x00,
 0x00,0x00,0x00,0x00,0x00,0xe0,0x7e,0xbf,0x6f,0x00,0x00,0x09,0x05,0x00,0xa0,
 0x2a,0x14,0x11,0x00,0x00,0x00,0x00,0x00,0x00,0x00,0x00,0x00,0x00,0x00,0x00,
 0x50,0xd7,0xf5,0xba,0x00,0x00,0x22,0x08,0x00,0xa0,0x24,0x41,0x02,0x00,0x00,
 0x00,0x00,0x00,0x00,0x00,0x00,0x00,0x00,0x00,0x00,0xa0,0x7d,0xff,0x7f,0x00,
 0x00,0x84,0x12,0x00,0x60,0x49,0xa8,0x2a,0x00,0x00,0x00,0x00,0x00,0x00,0x00,
 0x00,0x00,0x00,0x00,0x00,0xe0,0xde,0xda,0x36,0x00,0x00,0x5b,0x04,0x00,0x40,
 0x05,0x02,0x09,0x00,0x00,0x00,0x00,0x00,0x00,0x00,0x00,0x00,0x00,0x00,0x00,
 0xa0,0xf7,0xf7,0x7f,0x00,0x00,0xb6,0x09,0x00,0x40,0xa9,0x68,0x02,0x00,0x00,
 0x00,0x00,0x00,0x00,0x00,0x00,0x00,0x00,0x00,0x00,0x40,0xbd,0xba,0x35,0x00,
 0x00,0x7a,0x05,0x00,0x40,0x05,0x89,0x2a,0x00,0x00,0x00,0x00,0x00,0x00,0x00,
 0x00,0x00,0x00,0x00,0x00,0xa0,0xff,0xef,0x7f,0x00,0x00,0xfc,0x05,0x00,0xc0,
 0x52,0x52,0x01,0x00,0x00,0x00,0x00,0x00,0x00,0x00,0x00,0x00,0x00,0x00,0x00,
 0x40,0xdb,0xba,0x6e,0x00,0x00,0xe8,0x01,0x00,0x80,0x8a,0x24,0x0d,0x00,0x00,
 0x00,0x00,0x00,0x00,0x00,0x00,0x00,0x00,0x00,0x00,0x40,0x77,0xd7,0x7b,0x00,
 0x00,0x50,0x00,0x00,0xc0,0x12,0x49,0x01,0x00,0x00,0x00,0x00,0x00,0x00,0x00,
 0x00,0x00,0x00,0x00,0x00,0x80,0xde,0xfd,0xdf,0x00,0x00,0x00,0x00,0x00,0x40,
 0xa5,0xa8,0x0a,0x00,0x00,0x00,0x00,0x00,0x00,0x00,0x00,0x00,0x00,0x00,0x00,
 0x00,0xf9,0x56,0xfb,0x00,0x00,0x00,0x00,0x00,0xa0,0x0a,0x55,0x11,0x00,0x00,
 0x00,0x00,0x00,0x00,0x00,0x00,0x00,0x00,0x00,0x00,0x40,0xd6,0xff,0xf7,0x00,
 0x00,0x00,0x00,0x00,0xa0,0x22,0xa8,0x02,0x00,0x00,0x00,0x00,0x00,0x00,0x00,
 0x00,0x00,0x00,0x00,0x00,0x00,0x6c,0x55,0xdd,0x01,0x00,0x00,0x82,0x20,0xa0,
 0x94,0xaa,0x0a,0x00,0x00,0x00,0x00,0x00,0x00,0x00,0x00,0x00,0x00,0x00,0x00,
 0x00,0xe9,0xff,0xf7,0x02,0x00,0x00,0x20,0x00,0x50,0x25,0x55,0x01,0x00,0x00,
 0x00,0x00,0x00,0x00,0x00,0x00,0x00,0x00,0x00,0x00,0x00,0x54,0x55,0xff,0x05,
 0x00,0x10,0x10,0x08,0xb0,0x52,0xb5,0x04,0x00,0x00,0x00,0x00,0x00,0x00,0x00,
 0x00,0x00,0x00,0x00,0x00,0x00,0xe0,0xdf,0xd5,0x03,0x00,0x00,0x41,0x02,0x54,
 0x55,0xad,0x00,0x00,0x00,0x00,0x00,0x00,0x00,0x00,0x00,0x00,0x00,0x00,0x00,
 0x00,0x84,0xba,0x7f,0x07,0x00,0x01,0x08,0x00,0xf4,0x54,0x5b,0x01,0x00,0x00,
 0x00,0x00,0x00,0x00,0x00,0x00,0x00,0x00,0x00,0x00,0x00,0x50,0x77,0xd5,0x1b,
 0x42,0x00,0x40,0x01,0x5a,0xab,0x2a,0x00,0x00,0x00,0x00,0x00,0x00,0x00,0x00,
 0x00,0x00,0x00,0x00,0x00,0x00,0x80,0xee,0xff,0x2e,0x10,0x00,0x00,0x00,0xad,
 0x55,0x95,0x00,0x00,0x00,0x00,0x00,0x00,0x00,0x00,0x00,0x00,0x00,0x00,0x00,
 0x00,0xa0,0xba,0xaa,0x9f,0x00,0x00,0x00,0x80,0x5a,0xad,0x16,0x00,0x00,0x00,
 0x00,0x00,0x00,0x00,0x00,0x00,0x00,0x00,0x00,0x00,0x00,0x80,0xf6,0xff,0x2b,
 0x05,0x00,0x00,0x28,0xd5,0xaa,0xaa,0x00,0x00,0x00,0x00,0x00,0x00,0x00,0x00,
 0x00,0x00,0x00,0x00,0x00,0x00,0x50,0xa8,0xdb,0xfd,0x12,0x00,0x00,0xa0,0xb7,
 0xaa,0x1d,0x00,0x00,0x00,0x00,0x00,0x00,0x00,0x00,0x00,0x00,0x00,0x00,0x00,
 0x00,0x88,0xd2,0x7f,0xdf,0x15,0x00,0x40,0xda,0x54,0x55,0xf5,0x00,0x00,0x00,
 0x00,0x00,0x00,0x00,0x00,0x00,0x00,0x00,0x00,0x00,0x00,0x20,0x50,0xef,0xb5,
 0xd6,0x55,0x95,0xaa,0x6b,0xab,0xaa,0x02,0x00,0x00,0x00,0x00,0x00,0x00,0x00,
 0x00,0x00,0x00,0x00,0x00,0x00,0x42,0xa5,0xbd,0x56,0xa9,0xaa,0xaa,0x6a,0x5a,
 0xb5,0xaa,0x05,0x00,0x00,0x00,0x00,0x00,0x00,0x00,0x00,0x00,0x00,0x00,0x00,
 0x40,0x29,0x75,0x57,0x55,0xb5,0x56,0xd5,0x56,0xab,0x6a,0x6f,0x0b,0x00,0x00,
 0x00,0x00,0x00,0x00,0x00,0x00,0x00,0x00,0x00,0x00,0x10,0xaa,0xca,0xbd,0xaa,
 0xaa,0x5a,0xbb,0xaa,0xaa,0xdd,0xfd,0x36,0x00,0x00,0x00,0x00,0x00,0x00,0x00,
 0x00,0x00,0x00,0x00,0x00,0x48,0x91,0xba,0x77,0x55,0x55,0xd5,0xaa,0x6a,0xb5,
 0x76,0x97,0x55,0x00,0x00,0x00,0x00,0x00,0x00,0x00,0x00,0x00,0x00,0x00,0x00,
 0x80,0x54,0xd5,0x5d,0x55,0x55,0xb5,0xaa,0x5a,0xed,0xdd,0xf5,0x5b,0x01,0x00,
 0x00,0x00,0x00,0x00,0x00,0x00,0x00,0x00,0x00,0x00,0x22,0xaa,0x6e,0xbf,0xaa,
 0xaa,0xaa,0xaa,0xa5,0x5b,0xbb,0x6f,0xb7,0x02,0x00,0x00,0x00,0x00,0x00,0x00,
 0x00,0x00,0x00,0x00,0x00,0x90,0x52,0xdb,0x7f,0x55,0x55,0xad,0x56,0xdd,0xb6,
 0xaa,0xfa,0x6e,0x15,0x00,0x00,0x00,0x00,0x00,0x00,0x00,0x00,0x00,0x00,0x80,
 0x04,0xd4,0xfa,0xde,0xaa,0xaa,0xaa,0xaa,0x6a,0xd5,0xfe,0xbf,0xdb,0x4d,0x00,
 0x00,0x00,0x00,0x00,0x00,0x00,0x00,0x00,0x00,0x20,0xa0,0xaa,0xd6,0xb7,0x55,
 0x55,0x5b,0xd5,0xb6,0xaa,0xeb,0xee,0x76,0x9b,0x00,0x00,0x00,0x00,0x00,0x00,
 0x00,0x00,0x00,0x00,0x00,0x00,0xa9,0xbd,0x7f,0x55,0xd5,0xaa,0xb5,0x55,0xd5,
 0xfe,0xfb,0xdf,0xb6,0x02,0x00,0x00,0x00,0x00,0x00,0x00,0x00,0x00,0x00,0x00,
 0x54,0x6a,0xeb,0xed,0xfb,0x5b,0x75,0x6d,0xab,0xaa,0xd5,0xbf,0xfd,0x5b,0x15,
 0x00,0x00,0x00,0x00,0x00,0x00,0x00,0x00,0x00,0x04,0x01,0xd5,0xf6,0xbb,0x6e,
 0xb5,0xca,0xbf,0xd5,0x5a,0x7d,0xff,0x57,0xb7,0x0b,0x00,0x00,0x00,0x00,0x00,
 0x00,0x00,0x00,0x00,0x41,0x40,0xaa,0x7a,0xef,0xbb,0xab,0xb6,0xea,0xaf,0xaa,
 0xeb,0x6f,0xff,0x6e,0xb5,0x00,0x00,0x00,0x00,0x00,0x00,0x00,0x00,0x00,0x00,
 0x28,0xb5,0xef,0x5d,0xaf,0x56,0xf5,0xbf,0xba,0xaa,0xaa,0xfe,0xb5,0xfb,0x56,
 0x00,0x00,0x00,0x00,0x00,0x00,0x00,0x00,0x00,0x10,0x42,0xa9,0xfa,0xeb,0x6a,
 0xb5,0xda,0xea,0xae,0x55,0xd5,0xdf,0xff,0xad,0x6d,0x01,0x00,0x00,0x00,0x00,
 0x00,0x00,0x00,0x50,0x82,0x90,0xda,0xfd,0x5e,0x55,0xad,0x76,0xaf,0x7a,0x55,
 0x2d,0xfd,0xee,0xff,0x5b,0x05,0x00,0x00,0x00,0x00,0x00,0x00,0x00,0x00,0x08,
 0x24,0xaa,0xf6,0xdb,0xaa,0xaa,0xfa,0xbd,0xd5,0xab,0xda,0xef,0x7f,0xb7,0xbe,
 0x15,0x00,0x00,0x00,0x00,0x00,0x00,0x00,0x94,0x20,0x41,0xf5,0xbf,0xb6,0xaa,
 0xaa,0xdd,0x6b,0xed,0xd6,0xaa,0xfe,0xfd,0xff,0x57,0x2b,0x00,0x00,0x00,0x00,
 0x00,0x00,0x00,0x00,0x0a,0x94,0xaa,0xfa,0xad,0x5a,0x55,0x7b,0xbf,0xda,0xad,
 0x56,0x7b,0xdf,0xad,0xfa,0x56,0x01,0x00,0x00,0x00,0x00,0x00,0x00,0x89,0xa0,
 0x20,0xb5,0x5d,0x5b,0x55,0x6d,0xdd,0x6d,0x6b,0xab,0x75,0xff,0xff,0xff,0xaf,
 0xad,0x00,0x00,0x00,0x00,0x00,0x00,0x00,0x00,0x08,0x52,0x55,0x7f,0xb5,0xaa,
 0xaa,0xfe,0xbf,0xb6,0xaf,0x4a,0xdd,0xff,0x6f,0xfd,0x5a,0x01,0x00,0x00,0x00,
 0x00,0x00,0x00,0x24,0x22,0x81,0xea,0x5a,0x6b,0x55,0xd5,0x6f,0xd5,0xda,0xba,
 0xba,0xff,0xf7,0xfb,0xd7,0x57,0x05,0x00,0x00,0x00,0x00,0x00,0x00,0x81,0x88,
 0x54,0xda,0x7f,0x55,0xab,0xaa,0xfe,0xaf,0xf6,0x57,0x55,0xf5,0xff,0xde,0x7d,
 0xed,0x1a,0x00,0x00,0x00,0x00,0x00,0x40,0x10,0x51,0xa2,0xb4,0xde,0x5a,0x55,
 0xd5,0xdb,0x6d,0xad,0x5e,0x6b,0xff,0xff,0xff,0xdf,0xb7,0x4a,0x00,0x00,0x00,
 0x00,0x00,0x10,0x24,0x85,0x14,0xf5,0xbf,0xd7,0xaa,0x6a,0xef,0x5b,0x7b,0x6b,
 0xaa,0xf5,0xdf,0xff,0x7f,0xdd,0x15,0x00,0x00,0x00,0x00,0x00,0x00,0x91,0x28,
 0x49,0x55,0x6d,0x55,0x55,0xd5,0xba,0xb7,0xd6,0xde,0x5a,0xfd,0xfb,0xff,0xfb,
 0x77,0xab,0x00,0x00,0x00,0x00,0x00,0x28,0x44,0x55,0x53,0xea,0xff,0xab,0xaa,
 0xba,0xef,0xee,0xaa,0xb5,0xd6,0xf6,0xfe,0xfd,0xde,0xde,0x16,0x01,0x00,0x00,
 0x00,0x00,0x84,0x28,0x2a,0x55,0x59,0xad,0x5a,0x55,0xf5,0xfd,0x5b,0x7b,0x6f,
 0xb5,0xfd,0xff,0xff,0xff,0x6b,0x55,0x00,0x00,0x00,0x00,0x00,0x50,0x85,0x52,
 0x92,0xb2,0xff,0xab,0xaa,0x5a,0x6b,0x6f,0xd5,0x75,0x55,0xf5,0x7f,0xff,0x7f,
 0xdf,0x95,0x02,0x00,0x00,0x00,0x00,0x82,0xa8,0xaa,0x2a,0xd5,0xaa,0xaa,0x52,
 0xed,0xff,0x5f,0xb5,0xde,0xaa,0xfd,0xdf,0xff,0xf7,0x75,0x25,0x08,0x00,0x00,
 0x00,0x00,0x54,0x55,0x55,0x49,0xb5,0xff,0xae,0xaa,0xbe,0xda,0xb5,0x6a,0x6b,
 0xbb,0xf6,0xf6,0xff,0xbf,0x5f,0x55,0x01,0x00,0x00,0x00,0x00,0x21,0xa9,0xaa,
 0x54,0x69,0xad,0xab,0xaa,0xd5,0x7f,0xdf,0xd6,0xda,0xaa,0xfd,0xff,0xff,0xfe,
 0xda,0x4a,0x02,0x00,0x00,0x00,0x00,0x4a,0x95,0xaa,0x2a,0xaa,0xff,0x56,0x55,
 0xbf,0xda,0xb7,0xad,0xb6,0x6b,0xeb,0xfb,0xbf,0xef,0xb7,0x2a,0x14,0x00,0x00,
 0x00,0x80,0xa8,0xaa,0xaa,0x4a,0xd5,0xd7,0xad,0xaa,0xd5,0xff,0x5f,0xb5,0x55,
 0x5d,0xfd,0x6f,0xff,0xbf,0x5a,0x55,0x01,0x00,0x00,0x00,0x80,0x22,0x55,0x55,
 0x55,0x72,0xbf,0xb6,0xea,0xae,0xea,0xee,0xae,0xea,0xaa,0xd7,0xdd,0xff,0xff,
 0xad,0x95,0x2a,0x00,0x00,0x00,0x40,0x54,0x55,0x55,0xa5,0xd4,0x6b,0xab,0xda,
 0x5d,0xbf,0xbf,0x6a,0x9b,0x57,0xfd,0xf7,0xff,0xaf,0x5a,0x55,0x0a,0x00,0x00,
 0x00,0x80,0x52,0xd5,0xb6,0xaa,0xea,0xbf,0x5d,0x35,0xb5,0xed,0xab,0xaa,0x6a,
 0xb5,0xd5,0xdf,0xfd,0xff,0x6b,0x95,0x24,0x00,0x00,0x00,0x20,0x55,0xab,0x55,
 0x55,0xd5,0x76,0x6b,0xed,0xaa,0xfb,0xfe,0xd5,0xaa,0xae,0x7e,0x7b,0xff,0xad,
 0xaa,0x52,0x95,0x00,0x00,0x00,0x40,0x55,0x6d,0xad,0xaa,0xea,0xef,0x5e,0x5b,
 0x6b,0xdd,0xaf,0xaa,0x4a,0xd5,0xd5,0xdf,0xef,0x7f,0x95,0xa4,0x2a,0x00,0x00,
 0x00,0x40,0xb5,0xaa,0x5a,0x55,0xf5,0xbb,0xb5,0xb6,0x9a,0x77,0x5b,0xb5,0x55,
 0xad,0xd6,0xff,0xfd,0xd5,0x2a,0x15,0x82,0x00,0x00,0x00,0x90,0x6a,0x57,0xd7,
 0xda,0xea,0x6f,0xef,0xed,0x66,0xdd,0x6f,0x55,0xb5,0x5a,0x6d,0xab,0x7f,0x7f,
 0xa3,0xd2,0x54,0x00,0x00,0x00,0xa0,0xaa,0xec,0x5a,0xb5,0xaa,0xbb,0x5a,0x5f,
 0xad,0xfb,0xb6,0xaa,0xaa,0xf6,0xaa,0x7e,0xdb,0xd7,0xaa,0x94,0x0a,0x00,0x00,
 0x00,0xa8,0xda,0x9b,0xb5,0xae,0xea,0xef,0xea,0xd5,0xaa,0xd6,0xdf,0x56,0xab,
 0xaa,0xd5,0xef,0xfe,0xbd,0x96,0xaa,0xa2,0x00,0x00,0x00,0xa0,0xb6,0x6a,0x6f,
 0x6b,0xf5,0xbe,0x5b,0xb7,0x56,0x6d,0xbb,0x6a,0x55,0xbd,0xaa,0xba,0xdb,0xd7,
 0xaa,0xaa,0x14,0x01,0x00,0x00,0xa8,0xea,0xda,0xaa,0xda,0xea,0x6b,0xd5,0xda,
 0xea,0xda,0x57,0xdb,0x56,0x55,0xd5,0xef,0x6e,0xbf,0x55,0x55,0x45,0x00,0x00,
 0x00,0xa8,0x5d,0xab,0xdb,0xb6,0xfa,0xdf,0xb6,0x6d,0x9b,0xb5,0xfd,0x56,0x55,
 0xb5,0xaa,0xba,0xf7,0x55,0xaf,0x4a,0x12,0x01,0x00,0x00,0xa8,0xea,0x76,0xb5,
 0x6d,0xd7,0xba,0x55,0xb5,0x6a,0xd5,0x57,0xad,0x55,0x29,0xa9,0xed,0xfe,0xff,
 0x7a,0xab,0xa4,0x00,0x00,0x00,0xa8,0xb7,0xad,0xab,0xd6,0xfa,0x6f,0x55,0xed,
 0xaa,0xaa,0xdd,0x5b,0xad,0x4a,0xaa,0xba,0x5b,0xd5,0xd7,0x2a,0x11,0x00,0x00,
 0x00,0x68,0x6d,0xdb,0x76,0xbb,0xd5,0x5e,0x55,0xa9,0xaa,0x6a,0xb7,0x6a,0xab,
 0xb2,0xaa,0xd6,0xfe,0xbf,0xba,0x55,0x82,0x02,0x00,0x00,0xa8,0xda,0x76,0xad,
 0x55,0xed,0xeb,0xaa,0xaa,0x56,0xa9,0xdf,0xd6,0xaa,0x8a,0xaa,0xbd,0x55,0xf5,
 0x6f,0x95,0x14,0x00,0x00,0x00,0xa8,0xab,0xad,0x7b,0xbf,0x75,0x5f,0x55,0x55,
 0x55,0xd5,0xb7,0xbd,0xaa,0x2a,0x55,0x6b,0xff,0x6f,0xb5,0x2b,0x41,0x01,0x00,
 0x00,0x68,0x6d,0x7b,0xd5,0x6a,0xdb,0xb5,0xaa,0x54,0x55,0xb5,0x6f,0xab,0x55,
 0x55,0xd5,0xf6,0xaa,0xfa,0x5b,0x45,0x15,0x02,0x00,0x00,0xa8,0xdb,0xd6,0xbf,
 0xdf,0x7a,0xab,0x15,0x55,0x55,0x6d,0xdd,0x5a,0x55,0x55,0x55,0x5d,0xdf,0x5d,
 0x6f,0x9b,0x40,0x01,0x00,0x00,0xd8,0xb6,0xbd,0xea,0xaa,0xd6,0x5d,0x65,0x29,
 0x55,0xd5,0xb7,0xf7,0x56,0x55,0x52,0xeb,0x6a,0xf7,0xda,0x52,0x15,0x00,0x00,
 0x00,0xb0,0x7d,0xd7,0xb7,0x5d,0xb9,0xeb,0x2a,0x55,0xad,0xba,0xed,0xaa,0xb5,
 0xaa,0xd4,0x5a,0xbf,0xad,0x6f,0x15,0x42,0x01,0x00,0x00,0x54,0xeb,0xfd,0xdd,
 0x56,0xed,0x5a,0x49,0x55,0xaa,0xd5,0xdf,0xbd,0xaa,0x0a,0x29,0xb5,0xd5,0xdb,
 0xba,0xd6,0x10,0x00,0x00,0x00,0xd0,0x5e,0xaf,0xbb,0xad,0xb6,0xb6,0xaa,0x92,
 0x6a,0x7b,0x6b,0x6b,0x95,0xda,0x52,0x6b,0x7b,0xb7,0xed,0x15,0x42,0x00,0x00,
 0x00,0xb0,0xf5,0xfd,0x76,0x5b,0x7b,0x6b,0x25,0x54,0xa5,0xd6,0xdf,0x5e,0x55,
 0x15,0xa5,0xda,0xd6,0x6e,0x5b,0x4b,0x28,0x01,0x00,0x00,0xa0,0xaa,0xb7,0xaf,
 0xd7,0xde,0xaa,0x4a,0x95,0xa8,0xfa,0xb5,0x55,0x55,0xb6,0x54,0xad,0xbd,0xdb,
 0xea,0x92,0x42,0x00,0x00,0x00,0xa0,0xff,0xfe,0xda,0xaa,0xbb,0x55,0xa5,0x2a,
 0x45,0x55,0xef,0xb6,0xa2,0x4a,0x4a,0x75,0xeb,0xbf,0xaa,0x55,0x28,0x00,0x00,
 0x00,0xa0,0xaa,0xdb,0xb7,0x55,0x57,0xab,0x89,0x54,0x50,0xfd,0xdd,0xab,0x14,
 0x95,0x54,0xad,0xda,0x76,0x55,0x95,0x22,0x00,0x00,0x00,0x40,0x77,0x7f,0x6d,
 0xd5,0xfe,0x56,0x25,0x91,0x94,0xaa,0x6b,0x2d,0xa1,0x20,0x51,0xb5,0xd5,0xef,
 0x52,0x15,0x14,0x00,0x00,0x00,0x40,0xad,0xea,0xab,0xa5,0xab,0xad,0x4a,0x2a,
 0xa2,0x76,0xdd,0x96,0xac,0x8a,0xaa,0xea,0x56,0xbd,0x55,0xd5,0x42,0x00,0x00,
 0x00,0x80,0x52,0x5f,0x5b,0xf5,0x6f,0xdb,0x52,0xa1,0x40,0xa9,0x77,0x2d,0x49,
 0x82,0x54,0xdd,0x95,0xd7,0xaa,0x2a,0x09,0x00,0x00,0x00,0x00,0xd4,0xba,0x6d,
 0xf5,0xfb,0xb6,0xaa,0x0a,0x15,0xda,0xad,0x4b,0xaa,0x50,0xad,0xbb,0x4f,0x7d,
 0x57,0x55,0x02,0x00,0x00,0x00,0x00,0xa5,0x55,0x5b,0xfd,0x7f,0xdf,0x56,0xb5,
 0xa0,0x6a,0x77,0x95,0x2a,0x44,0xdb,0xee,0x15,0xab,0xad,0xaa,0x00,0x00,0x00,
 0x00,0x00,0xa8,0xee,0xaa,0xfe,0xff,0x6f,0xad,0x4a,0x15,0xf4,0xdd,0xaa,0x94,
 0x52,0xf7,0xff,0x57,0xd4,0x5a,0x55,0x00,0x00,0x00,0x00,0x00,0x42,0x55,0x55,
 0xff,0xff,0xff,0x6b,0x2b,0x45,0x55,0xb7,0x2d,0x25,0xe8,0xfd,0xff,0x0d,0x55,
 0x57,0x15,0x00,0x00,0x00,0x00,0x00,0x00,0x55,0xea,0xff,0xff,0x5f,0xdd,0x56,
 0x29,0xe8,0x5a,0x55,0x49,0xb5,0xff,0xff,0x17,0xa2,0x54,0x02,0x00,0x00,0x00,
 0x00,0x00,0x00,0x00,0xaa,0xff,0xff,0xff,0xb7,0x6d,0x45,0x55,0xb7,0xaa,0x56,
 0xfd,0xff,0xbf,0x0d,0x08,0x21,0x01,0x02,0x00,0x00,0x00,0x00,0x00,0x20,0xfd,
 0xff,0xff,0xff,0x6d,0x5b,0x15,0x52,0x6d,0x55,0xb5,0xff,0xff,0xee,0x1f,0x52,
 0x0a,0x10,0x00,0x00,0x00,0x00,0x00,0x00,0x00,0xfa,0xff,0xff,0xff,0x5f,0xb5,
 0xd5,0x54,0xa9,0x6a,0xd5,0xfe,0xbf,0xff,0x0b,0x00,0x01,0x00,0x00,0x00,0x00,
 0x00,0x00,0x00,0x00,0xfe,0xff,0xff,0xfb,0x7f,0x6d,0x2b,0xa9,0xaa,0xd6,0xfd,
 0xff,0xff,0xff,0x17,0x00,0x20,0x01,0x00,0x00,0x00,0x00,0x00,0x00,0x00,0xfc,
 0x7f,0xff,0xfe,0xff,0xda,0xde,0xaa,0xa8,0x6d,0xeb,0x77,0xf7,0x7b,0x0d,0x00,
 0x08,0x00,0x00,0x00,0x00,0x00,0x00,0x00,0x00,0xea,0xff,0xbf,0xff,0xbf,0xb7,
 0xb5,0x2a,0xa5,0xaa,0x5a,0xdd,0xff,0xef,0x2b,0x00,0x00,0x00,0x00,0x00,0x00,
 0x00,0x00,0x00,0x00,0xfc,0xdf,0xf7,0xff,0xff,0xed,0x57,0x55,0xaa,0xaa,0xaa,
 0xea,0xfd,0xfe,0x17,0x00,0x00,0x00,0x00,0x00,0x00,0x00,0x00,0x00,0x00,0xf8,
 0xff,0xfe,0xff,0xff,0x77,0xbd,0x5b,0xa9,0xaa,0xaa,0x54,0xef,0x5f,0x0d,0x00,
 0x00,0x00,0x00,0x00,0x00,0x00,0x00,0x00,0x00,0xfc,0xfb,0xff,0xff,0xfd,0xdf,
 0xd7,0x56,0x55,0x55,0x55,0xa5,0xb4,0xf7,0x1b,0x00,0x00,0x00,0x00,0x00,0x00,
 0x00,0x00,0x00,0x00,0xe8,0xee,0xff,0xdf,0xef,0xff,0x7e,0xab,0xaa,0xaa,0xad,
 0x0a,0xf5,0x7f,0x07,0x00,0x00,0x00,0x00,0x00,0x00,0x00,0x00,0x00,0x00,0xfc,
 0xfb,0x56,0x7d,0xbb,0xbd,0xab,0x5d,0x6d,0xb5,0xaa,0xb2,0x4a,0xfd,0x1a,0x00,
 0x00,0x00,0x00,0x00,0x00,0x00,0x00,0x00,0x00,0x68,0xbf,0xff,0xd6,0xed,0xf6,
 0xff,0xab,0xaa,0x6a,0x5b,0xa5,0x5a,0xb7,0x17,0x00,0x00,0x00,0x00,0x00,0x00,
 0x00,0x00,0x00,0x00,0xb8,0xfd,0x55,0x7f,0xbf,0xad,0xad,0x5a,0x57,0xd5,0x6a,
 0x95,0xaa,0xfc,0x05,0x00,0x00,0x00,0x00,0x00,0x00,0x00,0x00,0x00,0x00,0xe8,
 0xbf,0xed,0xea,0xfb,0xeb,0xbf,0xf6,0x5a,0x95,0xaa,0xaa,0xaa,0xd1,0x0f,0x00,
 0x00,0x00,0x00,0x00,0x00,0x00,0x00,0x00,0x00,0xb8,0x6e,0xdb,0xbf,0x5f,0x5b,
 0xd5,0xaa,0x55,0x69,0xab,0x22,0xad,0xea,0x0a,0x00,0x00,0x00,0x00,0x00,0x00,
 0x00,0x00,0x00,0x00,0xe8,0xb7,0xbd,0xf6,0xf7,0xb6,0xbe,0xdd,0x56,0x55,0xad,
 0xac,0x5a,0xd5,0x17,0x00,0x00,0x00,0x00,0x00,0x00,0x00,0x00,0x00,0x00,0x58,
 0xed,0xf6,0x7f,0xff,0xed,0x55,0x7b,0xab,0xea,0x6a,0x51,0x6b,0x25,0x0b,0x00,
 0x00,0x00,0x00,0x00,0x00,0x00,0x00,0x00,0x00,0xf8,0xdb,0xaf,0xf5,0xad,0x5b,
 0xfb,0xed,0xad,0x5a,0xaf,0xa6,0x94,0x92,0x0d,0x00,0x00,0x00,0x00,0x00,0x00,
 0x00,0x00,0x00,0x00,0x48,0x77,0xfd,0xde,0xff,0x7e,0xd7,0x5f,0x5b,0xb7,0xb5,
 0x4a,0xa9,0x0a,0x17,0x00,0x00,0x00,0x00,0x00,0x00,0x00,0x00,0x00,0x00,0xb0,
 0xde,0xab,0x6b,0xab,0xd5,0xfe,0xf6,0x6d,0x6d,0xab,0x09,0x12,0x51,0x0d,0x00,
 0x00,0x00,0x00,0x00,0x00,0x00,0x00,0x00,0x00,0xe8,0x75,0xf7,0xfe,0x7e,0xbf,
 0xd5,0xdf,0xb7,0xdd,0x76,0x55,0xa5,0x14,0x16,0x00,0x00,0x00,0x00,0x00,0x00,
 0x00,0x00,0x00,0x00,0xa8,0xff,0xba,0xd5,0xd5,0x55,0xff,0x75,0xfd,0x6a,0xad,
 0x22,0x08,0x85,0x0a,0x00,0x00,0x00,0x00,0x00,0x00,0x00,0x00,0x00,0x00,0xe8,
 0xd6,0x6f,0xbf,0xaf,0xb6,0x75,0xdf,0xaf,0xdf,0x5b,0x95,0x55,0x28,0x16,0x00,
 0x00,0x00,0x00,0x00,0x00,0x00,0x00,0x00,0x00,0xa8,0xbf,0xda,0xd5,0xfa,0x6d,
 0xdf,0xfb,0xfb,0xb5,0x56,0x25,0xa2,0x82,0x0c,0x00,0x00,0x00,0x00,0x00,0x00,
 0x00,0x00,0x00,0x00,0xf8,0xf6,0x76,0xfb,0xaf,0xaa,0xfa,0xaf,0x7e,0xd7,0x6d,
 0x55,0x09,0x29,0x15,0x00,0x00,0x00,0x00,0x00,0x00,0x00,0x00,0x00,0x00,0xa8,
 0xaf,0xdd,0xae,0x7e,0x57,0xfd,0xfb,0xff,0x6d,0xdb,0x2a,0x55,0x42,0x0a,0x00,
 0x00,0x00,0x00,0x00,0x00,0x00,0x00,0x00,0x00,0xfc,0xf5,0xb6,0xfd,0x55,0x55,
 0x7b,0xff,0xed,0xbb,0xb5,0x55,0xa9,0x94,0x2a,0x00,0x00,0x00,0x00,0x00,0x00,
 0x00,0x00,0x00,0x00,0xaa,0xdf,0x6d,0xab,0xaf,0x55,0xea,0x5f,0x7f,0xef,0x6f,
 0xad,0xaa,0x42,0x11,0x00,0x00,0x00,0x00,0x00,0x00,0x00,0x00,0x00,0x00,0x7c,
 0xaa,0xda,0x5f,0xb5,0xaa,0xfa,0xff,0xfd,0xbd,0x5a,0xab,0xaa,0x08,0x0a,0x00,
 0x00,0x00,0x00,0x00,0x00,0x00,0x00,0x00,0x00,0xca,0xba,0x6a,0xb5,0xad,0xaa,
 0xf4,0x7b,0xd7,0xd7,0xb5,0x6a,0x55,0x91,0x00,0x00,0x00,0x00,0x00,0x00,0x00,
 0x00,0x00,0x00,0x00,0x5a,0xa5,0xda,0x6e,0x6b,0x55,0xd5,0xff,0x7d,0x7f,0x6b,
 0x55,0x25,0x05,0x15,0x00,0x00,0x00,0x00,0x00,0x00,0x00,0x00,0x00,0x00,0xaa,
 0x4a,0x55,0xdb,0xaa,0x2a,0xea,0xdf,0xfe,0xed,0xd6,0xad,0x4a,0x52,0x00,0x00,
 0x00,0x00,0x00,0x00,0x00,0x00,0x00,0x00,0x00,0x54,0x55,0xad,0xb6,0x5a,0xd5,
 0x6a,0xf7,0xdb,0xbf,0xbd,0x5a,0xd5,0x24,0x0a,0x00,0x00,0x00,0x00,0x00,0x00,
 0x00,0x00,0x00,0x00,0x52,0x55,0x55,0x6b,0x57,0x2b,0xa9,0x7f,0x7f,0xfb,0x6b,
 0x6b,0x55,0x89,0x00,0x00,0x00,0x00,0x00,0x00,0x00,0x00,0x00,0x00,0x00,0x54,
 0x55,0xd5,0xde,0xb4,0x4a,0xea,0xff,0xf6,0xdf,0xd6,0xaa,0xaa,0x12,0x0a,0x00,
 0x00,0x00,0x00,0x00,0x00,0x00,0x00,0x00,0x00,0xb4,0x52,0x25,0xa9,0x55,0x55,
 0x95,0xdf,0xdf,0xf7,0xbb,0xb5,0x55,0x42,0x00,0x00,0x00,0x00,0x00,0x00,0x00,
 0x00,0x00,0x00,0x00,0x5a,0x49,0xa9,0x56,0xad,0xaa,0x54,0x7d,0xfb,0xbe,0x6e,
 0x6b,0xad,0x2a,0x09,0x00,0x00,0x00,0x00,0x00,0x00,0x00,0x00,0x00,0x00,0xb4,
 0xaa,0xaa,0x6d,0x55,0x15,0xa5,0xfe,0xff,0xef,0xdb,0xde,0xaa,0x4a,0x04,0x00,
 0x00,0x00,0x00,0x00,0x00,0x00,0x00,0x00,0x00,0xac,0x4a,0xa5,0xaa,0xaa,0xaa,
 0x4a,0xab,0xea,0x7b,0xb7,0xb5,0x5b,0x55,0x11,0x00,0x00,0x00,0x00,0x00,0x00,
 0x00,0x00,0x00,0x00,0xa8,0x56,0x52,0x55,0x55,0x25,0x91,0xfe,0xbf,0xff,0x7a,
 0xab,0x6a,0x55,0x04,0x00,0x00,0x00,0x00,0x00,0x00,0x00,0x00,0x00,0x00,0xda,
 0xa5,0x94,0xaa,0x5a,0xa9,0xaa,0xbd,0xfb,0xaf,0xd7,0x5a,0x55,0xab,0x02,0x00,
 0x00,0x00,0x00,0x00,0x00,0x00,0x00,0x00,0x00,0xa8,0x4a,0x21,0x55,0x55,0x15,
 0x54,0xf7,0xde,0xfd,0x5a,0x55,0x55,0xad,0x00,0x00,0x00,0x00,0x00,0x00,0x00,
 0x00,0x00,0x00,0x00,0xb4,0x2b,0x4a,0xa2,0xaa,0x44,0xa5,0xbe,0xff,0xaf,0xb7,
 0xab,0xaa,0x2a,0x02,0x00,0x00,0x00,0x00,0x00,0x00,0x00,0x00,0x00,0x00,0x68,
 0x55,0x29,0x09,0x29,0x91,0xaa,0xf5,0xb5,0xfb,0x6a,0xad,0xaa,0x55,0x01,0x00,
 0x00,0x00,0x00,0x00,0x00,0x00,0x00,0x00,0x00,0xd4,0xaa,0x84,0xa4,0xaa,0x2a,
 0xd5,0x76,0xff,0xdf,0x5d,0x55,0x55,0x55,0x00,0x00,0x00,0x00,0x00,0x00,0x00,
 0x00,0x00,0x00,0x00,0x50,0x15,0x29,0x42,0x2a,0x41,0xb5,0xfa,0xdd,0xba,0xaa,
 0x55,0xb5,0x8a,0x00,0x00,0x00,0x00,0x00,0x00,0x00,0x00,0x00,0x00,0x00,0xe8,
 0xa6,0x44,0xa8,0x54,0xaa,0xaa,0xdd,0xfe,0xd7,0x5b,0x55,0x55,0x2b,0x01,0x00,
 0x00,0x00,0x00,0x00,0x00,0x00,0x00,0x00,0x00,0x90,0x2a,0x91,0x42,0x95,0x92,
 0x54,0xfb,0xdb,0x6d,0x55,0x55,0xaa,0x2a,0x00,0x00,0x00,0x00,0x00,0x00,0x00,
 0x00,0x00,0x00,0x00,0x60,0x55,0x24,0x28,0xa9,0x24,0x55,0xb5,0x7e,0xab,0xaa,
 0x92,0xaa,0x52,0x01,0x00,0x00,0x00,0x00,0x00,0x00,0x00,0x00,0x00,0x00,0x40,
 0xad,0x42,0x51,0x4a,0x4a,0x55,0xef,0xab,0x55,0xb5,0xaa,0xaa,0x26,0x00,0x00,
 0x00,0x00,0x00,0x00,0x00,0x00,0x00,0x00,0x00,0x50,0x55,0x29,0x82,0xaa,0x50,
 0x55,0xb9,0x7d,0x55,0x55,0xa5,0xaa,0x14,0x00,0x00,0x00,0x00,0x00,0x00,0x00,
 0x00,0x00,0x00,0x00,0x80,0x6a,0x49,0x54,0x55,0xaa,0xaa,0xea,0x96,0xaa,0xaa,
 0x2a,0x95,0x42,0x00,0x00,0x00,0x00,0x00,0x00,0x00,0x00,0x00,0x00,0x00,0x80,
 0xda,0x92,0x92,0xaa,0x4a,0x55,0xa9,0x6f,0x85,0xa4,0x52,0xaa,0x14,0x00,0x00,
 0x00,0x00,0x00,0x00,0x00,0x00,0x00,0x00,0x00,0x00,0x55,0xab,0x24,0x95,0x54,
 0x95,0xd2,0xaa,0xaa,0x4a,0x55,0x25,0x09,0x00,0x00,0x00,0x00,0x00,0x00,0x00,
 0x00,0x00,0x00,0x00,0x00,0xda,0x42,0xaa,0xaa,0x52,0x55,0xa1,0xad,0x52,0x52,
 0x52,0x55,0x22,0x00,0x00,0x00,0x00,0x00,0x00,0x00,0x00,0x00,0x00,0x00,0x80,
 0xb4,0x95,0xa4,0xaa,0xaa,0xa4,0xa0,0x55,0xa5,0x94,0xa4,0x4a,0x05,0x00,0x00,
 0x00,0x00,0x00,0x00,0x00,0x00,0x00,0x00,0x00,0x00,0x54,0x55,0xa9,0xaa,0xaa,
 0x4a,0x41,0xad,0x48,0xa9,0xaa,0x52,0x10,0x00,0x00,0x00,0x00,0x00,0x00,0x00,
 0x00,0x00,0x00,0x00,0x00,0xe8,0x12,0x55,0x57,0x55,0x55,0x40,0x15,0x95,0x52,
 0x49,0x95,0x02,0x00,0x00,0x00,0x00,0x00,0x00,0x00,0x00,0x00,0x00,0x00,0x00,
 0x90,0x55,0xaa,0x5a,0x92,0x20,0x80,0xaa,0xaa,0x14,0x55,0x25,0x04,0x00,0x00,
 0x00,0x00,0x00,0x00,0x00,0x00,0x00,0x00,0x00,0x00,0xa4,0x92,0x52,0x55,0x55,
 0x56,0x00,0x55,0x50,0x55,0x52,0x89,0x00,0x00,0x00,0x00,0x00,0x00,0x00,0x00,
 0x00,0x00,0x00,0x00,0x00,0x80,0x2a,0x95,0xaa,0x24,0x14,0x00,0xaa,0x46,0x55,
 0x25,0x52,0x05,0x00,0x00,0x00,0x00,0x00,0x00,0x00,0x00,0x00,0x00,0x00,0x00,
 0x20,0xa1,0xaa,0x2a,0x55,0x15,0x00,0x54,0x59,0x55,0x48,0x09,0x00,0x00,0x00,
 0x00,0x00,0x00,0x00,0x00,0x00,0x00,0x00,0x00,0x00,0x00,0x8a,0x54,0x55,0x95,
 0x0a,0x00,0x50,0xaa,0xaa,0x95,0xa4,0x00,0x00,0x00,0x00,0x00,0x00,0x00,0x00,
 0x00,0x00,0x00,0x00,0x00,0x80,0x50,0xaa,0x24,0xa5,0x02,0x00,0xa0,0x4a,0xa9,
 0x2a,0x09,0x00,0x00,0x00,0x00,0x00,0x00,0x00,0x00,0x00,0x00,0x00,0x00,0x00,
 0x00,0x04,0x28,0x55,0xaa,0x02,0x00,0x00,0x10,0x45,0xaa,0x12,0x00,0x00,0x00,
 0x00,0x00,0x00,0x00,0x00,0x00,0x00,0x00,0x00,0x00,0x00,0x90,0x42,0x89,0x54,
 0x00,0x00,0x00,0x02,0x00,0xa9,0x04,0x00,0x00,0x00,0x00,0x00,0x00,0x00,0x00,
 0x00,0x00,0x00,0x00,0x00,0x00,0x02,0x14,0x52,0x15,0x00,0x00,0x00,0x00,0x00,
 0x00,0x00,0x00,0x00,0x00,0x00,0x00,0x00,0x00,0x00,0x00,0x00,0x00,0x00,0x00,
 0x00,0x80,0xa8,0xaa,0x12,0x00,0x00,0x00,0x00,0x00,0x00,0x00,0x00,0x00,0x00,
 0x00,0x00,0x00,0x00,0x00,0x00,0x00,0x00,0x00,0x00,0x00,0x00,0x80,0x00,0x00,
 0x00,0x00,0x00,0x00,0x00,0x00,0x00,0x00,0x00,0x00,0x00,0x00,0x00,0x00,0x00,
 0x00,0x00,0x00,0x00,0x00,0x00,0x00,0x00,0x10,0x00,0x00,0x00,0x00,0x00,0x00,
 0x00,0x00,0x00,0x00,0x00,0x00,0x00,0x00,0x00,0x00,0x00,0x00,0x00,0x00,0x00,
 0x00,0x00,0x00,0x00,0x00,0x00,0x00,0x00,0x00,0x00,0x00,0x00,0x00,0x00,0x00,
 0x00,0x00,0x00,0x00,0x00,0x00,0x00,0x00,0x00,0x00,0x00,0x00,0x00,0x00,0x00,
 0x00,0x00,0x00,0x00,0x00,0x00,0x00,0x00,0x00,0x00,0x00,0x00,0x00,0x00,0x00,
 0x00,0x00,0x00,0x00,0x00,0x00,0x00,0x00,0x00,0x00,0x00,0x00,0x00,0x00,0x00,
 0x00,0x00,0x00,0x00,0x00,0x00,0x00,0x00,0x00,0x00,0x00,0x00,0x00,0x00,0x00,
 0x00,0x00,0x00,0x00,0x00,0x00,0x00,0x00,0x00,0x00,0x00,0x00,0x00,0x00,0x00,
 0x00,0x00,0x00,0x00,0x00,0x00,0x00,0x00,0x00,0x00,0x00,0x00,0x00,0x00,0x00,
 0x00,0x00,0x00,0x00,0x00,0x00,0x00,0x00,0x00,0x00,0x00,0x00,0x00,0x00,0x00,
 0x00,0x00,0x00,0x00,0x00,0x00,0x00,0x00,0x00,0x00,0x00,0x00,0x00,0x00,0x00,
 0x00,0x00,0x00,0x00,0x00,0x00,0x00,0x00,0x00,0x00,0x00,0x00,0x00,0x00,0x00,
 0x00,0x00,0x00,0x00,0x00,0x00,0x00,0x00,0x00,0x00,0x00,0x00,0x00,0x00,0x00,
 0x00,0x00,0x00,0x00,0x00,0x00,0x00,0x00,0x00,0x00,0x00,0x00,0x00,0x00,0x00,
 0x00,0x00,0x00,0x00,0x00,0x00,0x00,0x00,0x00,0x00,0x00,0x00,0x00,0x00,0x00,
 0x00,0x00,0x00,0x00,0x00,0x00,0x00,0x00,0x00,0x00,0x00,0x00,0x00,0x00,0x00,
 0x00,0x00,0x00,0x00,0x00,0x00,0x00,0x00,0x00,0x00};
